<svg xmlns="http://www.w3.org/2000/svg" viewBox="0 0 180 180" width="180" height="180">
  <title>MaatWork</title>
  <defs>
    <linearGradient id="bg" x1="0%" y1="0%" x2="100%" y2="100%">
      <stop offset="0%" stop-color="#0f0520"/>
      <stop offset="50%" stop-color="#1a0a3e"/>
      <stop offset="100%" stop-color="#2d1065"/>
    </linearGradient>
    <linearGradient id="shine" x1="0%" y1="0%" x2="0%" y2="100%">
      <stop offset="0%" stop-color="rgba(255,255,255,0.12)"/>
      <stop offset="100%" stop-color="rgba(255,255,255,0)"/>
    </linearGradient>
    <linearGradient id="m" x1="0%" y1="0%" x2="100%" y2="100%">
      <stop offset="0%" stop-color="#ffffff"/>
      <stop offset="100%" stop-color="#d4b8ff"/>
    </linearGradient>
    <linearGradient id="accent" x1="0%" y1="0%" x2="100%" y2="0%">
      <stop offset="0%" stop-color="#7c3aed"/>
      <stop offset="100%" stop-color="#a855f7"/>
    </linearGradient>
  </defs>
  <rect width="180" height="180" rx="40" fill="url(#bg)"/>
  <rect x="3" y="3" width="174" height="78" rx="37" fill="url(#shine)"/>
  <path d="
    M 36 136 L 36 50 Q 36 42 44 42 L 59 42 Q 63 42 65 46
    L 90 100 L 115 46 Q 117 42 121 42 L 136 42 Q 144 42 144 50
    L 144 136 Q 144 144 136 144 L 126 144 Q 118 144 118 136 L 118 78
    L 101 128 Q 99 134 94 134 L 86 134 Q 81 134 79 128 L 62 78
    L 62 136 Q 62 144 54 144 L 44 144 Q 36 144 36 136 Z
  " fill="url(#m)" opacity="0.95"/>
  <circle cx="148" cy="50" r="6" fill="url(#accent)" opacity="0.8"/>
</svg>
